Coordinates
version=1
nRows=7
nColumns=40
inDegrees=yes

Units are S.I. units (second, meters, Newtons, ...)
Angles are in degrees.

endheader
time	pelvis_tilt	pelvis_list	pelvis_rotation	pelvis_tx	pelvis_ty	pelvis_tz	hip_flexion_r	hip_adduction_r	hip_rotation_r	knee_angle_r	knee_angle_r_beta	ankle_angle_r	subtalar_angle_r	mtp_angle_r	hip_flexion_l	hip_adduction_l	hip_rotation_l	knee_angle_l	knee_angle_l_beta	ankle_angle_l	subtalar_angle_l	mtp_angle_l	lumbar_extension	lumbar_bending	lumbar_rotation	arm_flex_r	arm_add_r	arm_rot_r	elbow_flex_r	pro_sup_r	wrist_flex_r	wrist_dev_r	arm_flex_l	arm_add_l	arm_rot_l	elbow_flex_l	pro_sup_l	wrist_flex_l	wrist_dev_l
     19.48000000	     -2.96868168	     -8.04745914	      4.56055730	      1.05827128	      0.93006473	      0.47937306	     10.98999928	      6.69632207	    -15.83782184	     13.73294698	     13.73294698	      7.80801340	     -3.04430418	     -2.34981357	     31.60694096	    -17.30509008	      2.85653679	     73.02659783	     73.02659783	      5.15292292	    -19.66827240	     23.55275192	    -10.99873461	      7.05972593	      1.78995006	      9.78224758	    -16.19905106	     -1.88744549	     60.25291573	     45.76098792	      0.00000000	      0.00000000	      6.89838947	     -8.95974729	     -1.28693156	     44.94740761	     46.09026407	      0.00000000	      0.00000000
     19.49164286	     -3.24540061	     -7.90019136	      4.79388408	      1.05559789	      0.93021167	      0.47985108	     10.68072597	      6.63295327	    -15.90634876	     13.38277547	     13.38277547	      8.03516245	     -3.06360754	     -2.34452616	     33.67229992	    -16.71634320	      2.89285657	     72.02730662	     72.02730662	      6.24959419	    -19.66850107	     23.75494647	    -11.04274807	      6.77034836	      1.24835834	     12.71301370	    -15.99983356	     -1.84062682	     62.95863863	     45.67445731	      0.00000000	      0.00000000	      5.55512543	     -8.88141118	     -0.98247637	     42.74318663	     46.04211118	      0.00000000	      0.00000000
     19.50328571	     -3.49140072	     -7.75070948	      5.02044047	      1.05303074	      0.93036826	      0.48021070	     10.27848201	      6.57909947	    -15.98745667	     12.92389787	     12.92389787	      8.30293277	     -3.00796399	     -2.32988153	     35.48519586	    -16.10104334	      2.83846948	     70.69667630	     70.69667630	      7.15260084	    -19.66186549	     23.84958177	    -11.09968677	      6.52703836	      0.85266790	     15.55100597	    -15.86502741	     -1.66550627	     65.83244977	     45.57963111	      0.00000000	      0.00000000	      4.40435711	     -8.74136914	     -0.67403023	     40.26558923	     45.99316494	      0.00000000	      0.00000000
     19.51492857	     -3.72302997	     -7.58581102	      5.21689277	      1.05047878	      0.93053372	      0.48052243	      9.88895860	      6.49162314	    -16.05395325	     12.51173601	     12.51173601	      8.50440908	     -2.84045375	     -2.31285281	     37.05751681	    -15.33099507	      2.89995735	     69.03264718	     69.03264718	      7.93830973	    -19.65349090	     23.90652403	    -11.22239143	      6.24003581	      0.70920705	     18.14630635	    -16.01114653	     -1.24759611	     69.00719640	     45.46617880	      0.00000000	      0.00000000	      3.70684043	     -8.43059759	     -0.30910679	     37.12232065	     45.94586320	      0.00000000	      0.00000000
     19.52657143	     -3.99516807	     -7.39560742	      5.36075307	      1.04793142	      0.93067175	      0.48065604	      9.57954297	      6.33891538	    -16.18709845	     12.17695402	     12.17695402	      8.73910711	     -2.53990923	     -2.29035425	     38.43539893	    -14.49541533	      2.90923223	     66.98663307	     66.98663307	      8.51786869	    -19.62564883	     23.73943296	    -11.30273532	      5.94980089	      1.78245748	     19.66653417	    -17.31497414	     -0.87500715	     73.11456966	     45.32076404	      0.00000000	      0.00000000	      4.58874448	     -7.56626477	      0.26066902	     31.64880153	     45.92470346	      0.00000000	      0.00000000
     19.53821429	     -4.27004061	     -7.17715707	      5.54351513	      1.04546929	      0.93073302	      0.48058249	      9.25437209	      6.15609864	    -16.28415679	     11.79960760	     11.79960760	      8.94937722	     -2.39564820	     -2.27486919	     39.59802768	    -13.49838337	      3.04785159	     64.55484583	     64.55484583	      8.94723892	    -19.58442004	     23.39077623	    -11.38292073	      5.63752197	      1.53451473	     22.49309159	    -16.96675984	     -1.28682536	     75.42332736	     45.27110930	      0.00000000	      0.00000000	      3.38957219	     -7.43957657	      0.46364549	     30.17952838	     45.88461456	      0.00000000	      0.00000000
     19.54985714	     -4.58979710	     -6.96058513	      5.70516927	      1.04305110	      0.93072661	      0.48033380	      8.98498551	      5.93670058	    -16.45669587	     11.45822019	     11.45822019	      9.22381366	     -2.00543446	     -2.31956956	     40.56159253	    -12.41098973	      3.32295092	     61.68299297	     61.68299297	      9.09155998	    -19.50545826	     22.62747119	    -11.41979394	      5.32955470	      1.53127052	     25.08442153	    -16.96686831	     -1.37534435	     78.03283348	     45.20106177	      0.00000000	      0.00000000	      2.51016871	     -7.20537500	      0.75371192	     28.32102784	     45.83941489	      0.00000000	      0.00000000
